<?xml version="1.0" standalone="no"?>
<!DOCTYPE svg PUBLIC "-//W3C//DTD SVG 20010904//EN"
 "http://www.w3.org/TR/2001/REC-SVG-20010904/DTD/svg10.dtd">
<svg version="1.0" xmlns="http://www.w3.org/2000/svg"
 width="1574.000000pt" height="1669.000000pt" viewBox="0 0 1574.000000 1669.000000"
 preserveAspectRatio="xMidYMid meet">

<g transform="translate(0.000000,1669.000000) scale(0.100000,-0.100000)"
fill="#000000" stroke="none">
<path d="M3205 16250 c-196 -30 -347 -74 -470 -137 -233 -119 -441 -304 -581
-515 -70 -106 -118 -208 -157 -333 -65 -205 -70 -247 -74 -690 -4 -311 -8
-405 -18 -421 -13 -20 -23 -21 -312 -27 -251 -5 -310 -9 -373 -25 -171 -45
-290 -95 -392 -164 -79 -53 -224 -197 -266 -263 -17 -27 -35 -55 -39 -60 -20
-27 -62 -124 -93 -215 -52 -154 -52 -412 -1 -570 26 -78 85 -199 136 -275 21
-30 24 -35 86 -101 77 -83 163 -147 259 -194 25 -12 53 -26 62 -30 28 -15 131
-48 173 -55 22 -4 49 -13 60 -19 13 -7 136 -13 355 -16 l335 -5 12 -35 c9 -25
12 -190 12 -601 l1 -566 -23 -21 c-22 -21 -32 -22 -223 -22 -251 -1 -433 -13
-504 -34 -122 -37 -159 -51 -242 -94 -219 -112 -395 -313 -479 -547 -12 -33
-25 -68 -30 -78 -5 -10 -15 -76 -21 -147 -13 -145 -1 -300 33 -398 78 -227
244 -436 422 -532 100 -54 200 -100 218 -100 6 0 32 -7 58 -15 92 -29 191 -38
476 -44 l289 -6 13 -25 c10 -19 13 -158 13 -606 0 -529 -2 -583 -17 -595 -12
-11 -78 -16 -277 -21 -144 -3 -302 -11 -352 -17 -164 -19 -378 -108 -499 -206
-119 -96 -226 -229 -285 -350 -58 -119 -78 -189 -91 -316 -13 -128 1 -338 27
-387 8 -15 14 -32 14 -39 0 -22 62 -149 107 -218 61 -94 211 -240 300 -292 39
-24 76 -43 81 -43 5 0 15 -7 22 -15 7 -8 19 -15 27 -15 8 0 29 -6 46 -14 119
-53 307 -76 628 -76 179 0 229 -3 245 -14 18 -14 19 -33 22 -597 l2 -582 -22
-24 c-21 -23 -22 -23 -292 -24 -149 0 -293 -4 -321 -9 -106 -19 -254 -61 -280
-80 -5 -4 -21 -11 -33 -15 -76 -23 -230 -134 -322 -231 -203 -216 -282 -456
-251 -767 13 -133 30 -192 94 -327 12 -25 24 -47 27 -50 3 -3 18 -25 33 -48
71 -110 199 -232 312 -298 66 -39 189 -94 210 -94 9 0 26 -5 38 -12 64 -34
285 -56 573 -57 175 -1 203 -3 215 -18 11 -13 15 -98 20 -412 5 -325 9 -407
22 -456 10 -32 17 -72 17 -88 0 -16 6 -43 14 -60 7 -18 21 -54 31 -82 22 -63
53 -136 65 -155 6 -8 16 -26 23 -40 6 -14 27 -47 45 -75 18 -27 38 -58 45 -69
7 -10 17 -24 22 -30 6 -6 30 -36 55 -66 56 -70 177 -186 212 -206 16 -8 28
-19 28 -24 0 -6 7 -10 15 -10 9 0 18 -7 21 -15 4 -8 10 -15 15 -15 5 0 31 -15
57 -33 26 -18 83 -50 127 -70 44 -21 93 -45 108 -53 16 -8 36 -14 45 -14 9 0
30 -7 46 -15 16 -8 47 -18 70 -21 22 -4 53 -13 68 -20 15 -8 45 -14 68 -14 23
0 71 -7 108 -15 59 -14 657 -15 5287 -12 5340 3 5327 3 5430 39 17 5 53 14 80
20 28 5 64 16 82 24 17 7 36 14 41 14 6 0 23 6 39 14 37 18 92 43 123 56 14 6
39 19 55 30 17 11 37 23 45 27 112 52 357 283 458 430 60 88 69 103 112 193
23 47 48 98 56 113 8 16 14 36 14 45 0 9 7 30 15 45 8 15 17 45 20 65 4 20 13
66 20 102 7 36 18 133 24 215 15 210 16 12890 1 13095 -6 80 -17 168 -25 195
-7 28 -16 69 -20 93 -4 24 -13 56 -21 70 -8 15 -14 32 -14 39 0 14 -17 54 -69
163 -69 145 -192 306 -336 440 -96 90 -232 187 -309 221 -12 5 -28 13 -36 19
-24 15 -108 50 -122 50 -7 0 -22 7 -32 15 -11 8 -31 15 -44 15 -13 0 -33 5
-45 12 -20 11 -86 24 -247 48 -78 11 -10548 11 -10625 0z m5104 -2066 c14 -8
31 -14 38 -14 10 0 200 -94 248 -123 52 -32 218 -148 225 -157 3 -4 40 -35 82
-68 42 -34 122 -105 177 -158 127 -122 129 -124 207 -135 37 -5 71 -13 78 -17
6 -4 38 -12 71 -19 96 -18 177 -41 188 -52 6 -6 20 -11 32 -11 11 0 30 -6 41
-14 11 -8 37 -17 57 -21 20 -4 41 -13 48 -21 6 -8 19 -14 28 -15 9 0 39 -13
66 -29 28 -15 70 -38 94 -51 25 -12 67 -37 95 -56 28 -18 54 -33 59 -33 7 0
64 -37 77 -50 3 -3 25 -19 50 -35 25 -16 47 -32 50 -35 3 -3 24 -18 48 -34 23
-16 52 -38 65 -50 13 -11 54 -46 93 -77 89 -72 269 -253 347 -349 34 -41 64
-77 67 -80 11 -9 146 -194 153 -210 4 -8 25 -42 46 -75 57 -86 171 -318 212
-430 12 -33 25 -69 30 -80 17 -39 42 -121 56 -180 8 -33 21 -89 29 -125 9 -36
20 -90 25 -120 5 -30 16 -84 24 -120 8 -36 17 -94 21 -130 3 -36 10 -75 15
-88 12 -31 33 -431 33 -622 0 -313 -31 -689 -70 -856 -8 -33 -14 -74 -14 -90
0 -16 -5 -45 -10 -64 -10 -34 -24 -94 -55 -242 -9 -40 -26 -104 -38 -143 -13
-38 -34 -104 -46 -145 -13 -41 -29 -91 -37 -110 -7 -19 -17 -51 -23 -70 -10
-37 -44 -131 -131 -365 -29 -77 -65 -180 -81 -230 -16 -49 -33 -99 -38 -110
-5 -11 -14 -40 -21 -65 -6 -25 -20 -76 -31 -115 -11 -38 -24 -97 -30 -130 -5
-33 -14 -73 -19 -90 -13 -41 -28 -154 -42 -317 -21 -249 23 -528 118 -735 8
-17 14 -35 14 -41 0 -5 11 -30 25 -55 13 -26 36 -77 51 -114 54 -133 32 -273
-58 -377 l-33 -37 -2154 1 c-1184 0 -2157 2 -2161 5 -13 8 -50 84 -50 103 0
10 -6 27 -14 38 -8 11 -18 38 -21 60 -4 21 -12 44 -16 50 -5 6 -12 33 -15 60
-4 27 -12 58 -17 69 -12 22 -31 152 -48 323 -16 155 7 434 47 580 38 141 47
171 65 217 10 28 19 57 19 66 0 8 7 24 15 35 8 10 15 25 15 33 0 31 119 257
233 446 74 122 214 308 350 465 159 183 545 571 757 760 165 147 662 651 745
755 45 55 108 141 140 190 33 50 62 92 65 95 6 6 66 131 97 200 40 90 90 297
76 311 -6 6 -37 -12 -80 -48 -40 -32 -100 -73 -135 -91 -35 -18 -70 -37 -78
-42 -38 -22 -155 -72 -183 -77 -17 -4 -43 -12 -57 -20 -14 -7 -34 -13 -45 -13
-11 0 -42 -8 -70 -17 -44 -16 -107 -18 -565 -19 -449 0 -523 -3 -575 -17 -32
-9 -70 -17 -83 -17 -40 0 -231 -68 -342 -123 -123 -60 -185 -98 -298 -184 -45
-35 -84 -63 -87 -63 -3 0 -13 -7 -22 -16 -43 -38 -152 -112 -193 -131 -93 -43
-229 -53 -345 -26 -85 20 -192 113 -279 243 -45 67 -136 248 -136 272 -1 7 -9
31 -20 53 -11 22 -19 54 -20 72 0 17 -5 44 -11 59 -14 39 -14 151 1 215 7 30
28 87 48 128 40 83 82 126 807 836 373 365 504 497 581 584 21 25 53 60 69 78
38 41 44 48 80 103 16 25 33 47 37 50 3 3 10 18 13 33 4 15 11 29 15 32 5 3
18 26 30 53 96 209 144 285 245 387 71 71 108 104 161 141 108 77 135 94 143
94 6 0 14 6 18 13 10 15 36 29 183 102 63 32 127 64 142 71 14 8 31 14 38 14
6 0 36 11 65 25 l55 25 -6 47 c-4 27 -13 62 -20 80 -7 18 -16 54 -20 80 -4 26
-13 62 -20 80 -8 18 -14 48 -14 68 0 19 -7 77 -16 127 -23 136 -6 260 40 278
25 10 79 3 115 -16z m-5319 -175 c92 -26 210 -89 276 -149 42 -38 107 -115
117 -140 4 -8 11 -22 17 -30 21 -33 50 -110 50 -135 0 -14 5 -56 11 -93 29
-176 -74 -405 -236 -527 -88 -66 -204 -115 -310 -130 -58 -9 -1614 -7 -1662 1
-18 3 -37 12 -44 20 -6 8 -17 14 -23 14 -19 0 -106 100 -129 149 -18 37 -22
64 -22 142 0 56 5 102 11 110 6 8 15 25 19 39 13 43 104 149 129 150 5 0 17 6
25 13 38 32 143 37 837 37 433 0 703 4 725 10 25 7 39 18 43 33 3 12 6 126 6
253 0 170 3 233 13 243 14 14 77 10 147 -10z m4 -3234 c15 -8 34 -15 41 -15 7
0 42 -16 80 -35 254 -133 376 -360 340 -638 -7 -51 -17 -101 -23 -112 -7 -11
-17 -31 -22 -45 -25 -58 -68 -119 -124 -175 -85 -84 -172 -135 -301 -177 l-70
-23 -825 1 c-825 0 -825 0 -871 22 -40 19 -61 37 -131 112 -9 10 -19 29 -23
42 -4 12 -13 29 -19 37 -19 24 -14 220 7 256 9 17 17 35 17 42 0 11 90 106
121 128 8 6 34 19 59 30 43 19 75 20 795 22 748 3 750 3 768 24 15 19 17 47
17 263 0 134 3 246 7 249 12 13 128 7 157 -8z m-20 -3235 c27 -5 54 -14 60
-19 6 -4 23 -11 39 -15 28 -7 119 -59 148 -86 10 -8 29 -23 44 -34 30 -20 145
-171 145 -189 0 -7 7 -25 16 -42 9 -16 22 -73 28 -126 28 -207 -33 -380 -181
-522 -81 -77 -207 -148 -293 -166 -25 -5 -67 -14 -95 -20 -69 -16 -1601 -11
-1630 5 -11 6 -37 19 -59 30 -47 23 -110 92 -138 153 -13 30 -22 75 -25 127
-5 68 -2 89 16 129 11 26 21 53 21 59 0 27 104 128 156 152 l53 24 752 0 753
0 23 22 c23 21 23 23 23 264 0 133 3 250 7 259 6 18 32 17 137 -5z m8291
-2291 c62 -41 93 -80 115 -142 29 -82 7 -160 -58 -213 -83 -66 -153 -140 -171
-178 -11 -23 -27 -73 -37 -112 -17 -69 -16 -76 0 -155 36 -169 135 -292 301
-373 48 -24 176 -96 190 -108 5 -5 39 -30 75 -57 92 -69 202 -198 227 -268 3
-10 11 -24 17 -31 42 -55 66 -214 66 -444 0 -120 -3 -149 -16 -162 -14 -15
-315 -16 -3164 -16 -2054 0 -3158 3 -3175 10 l-26 10 4 202 c4 201 14 280 43
348 57 129 103 196 196 285 88 85 145 126 258 183 110 56 114 59 185 114 78
61 105 91 144 160 32 56 61 163 61 223 0 45 -25 157 -43 191 -14 28 -57 73
-164 171 -42 39 -73 103 -73 154 0 93 82 198 180 229 14 5 1105 8 2425 7
l2400 -2 40 -26z m-8327 -919 c35 -6 71 -15 80 -19 9 -5 51 -25 93 -45 69 -33
113 -64 174 -121 27 -26 90 -106 98 -125 4 -8 11 -22 17 -30 5 -8 19 -37 32
-65 19 -44 22 -67 22 -200 0 -131 -2 -156 -20 -195 -12 -25 -24 -53 -28 -63
-10 -29 -73 -121 -109 -159 -71 -75 -179 -140 -322 -191 -60 -22 -64 -22 -880
-22 -765 0 -823 1 -848 18 -14 9 -33 17 -41 17 -9 0 -41 26 -73 58 -77 77
-109 162 -101 270 3 39 10 77 15 84 6 7 14 24 18 36 13 44 67 113 109 140 99
63 69 61 862 62 483 0 731 4 752 11 17 6 32 20 36 32 3 12 6 128 6 258 0 233
3 259 35 259 5 0 38 -5 73 -10z"/>
</g>
</svg>
